M48
INCH
T01C0.0300
%
T01
X-004500Y+001000
X-003500Y+001000
X-002500Y+001000
X-001500Y+001000
X-000500Y+001000
X+000500Y+001000
X+001500Y+001000
X+002500Y+001000
X+003500Y+001000
X+003500Y+004000
X+002500Y+004000
X+001500Y+004000
X+000500Y+004000
X-000500Y+004000
X-001500Y+004000
X-002500Y+004000
X-003500Y+004000
X-004500Y+004000
X+000500Y+006500
X-000500Y+006500
X-001500Y-003000
X-005500Y-003000
X-006500Y-001000
X-006500Y+003000
X-006500Y-002000
X-005500Y-002000
X-001500Y+009500
X-000500Y+009500
X+000500Y+009500
X+001500Y+009500
X+002500Y+009500
X+003500Y+009500
X+000500Y+000000
X-000500Y+000000
X+000500Y-003000
X+004500Y-003000
X+003500Y-004000
X+004500Y-004000
X+005500Y-004000
X+006500Y-001500
X+002500Y-001500
X+005000Y+007500
X+005000Y+011500
X+006000Y+002500
X+007000Y+001500
X+006000Y+000500
X+006500Y+012000
X+006500Y+013000
X+006500Y+009500
X+009000Y+008500
X+010000Y+008500
X+009000Y+011000
X+010377Y+011000
X-002000Y+006000
X-004000Y+006000
X-002500Y+007500
X-002500Y+008500
X-004000Y+007500
X-004000Y+008500
X+008625Y+000375
X+009625Y+001375
X+010625Y+000375
X+008000Y-000500
X+004000Y-000500
X+010500Y+003750
X+006500Y+003750
X+001000Y+014500
X-006874Y+014500
X+006500Y+005500
X+006500Y+006500
X+006500Y+007500
X+006500Y+008500
X+008000Y+005000
X+009000Y+006000
X+010000Y+005000
X-002500Y-001000
X-004500Y-001000
X+003500Y+011000
X-000500Y+011000
X-005500Y-003750
X-001500Y-003750
X+004000Y+012500
X+005000Y+012500
M30
