M48
INCH
T01C0.0300
T02C0.0400
T03C0.0500
T04C0.0450
T05C0.0600
T06C0.0800
%
T01
X-000500Y+001500
X+000500Y+001500
X+001500Y+001500
X+002500Y+001500
X+003500Y+001500
X+004500Y+001500
X+005500Y+001500
X+006500Y+001500
X+007500Y+001500
X+007500Y+004500
X+006500Y+004500
X+005500Y+004500
X+004500Y+004500
X+003500Y+004500
X+002500Y+004500
X+001500Y+004500
X+000500Y+004500
X-000500Y+004500
X+001500Y+008000
X+002500Y+008000
X+003500Y+008000
X+004500Y+008000
X+005500Y+008000
X+006500Y+008000
X+003500Y+007000
X+003500Y+006000
X+005000Y+010000
X+005000Y+011000
X-000500Y+011250
X+003500Y+011250
X+003500Y+010000
X-000500Y+010000
X+001500Y+014000
X+002500Y+014000
X+005000Y-001500
X+009000Y-001500
X+003000Y-003000
X+002000Y-002000
X+003000Y-001000
X+001000Y-002000
X-003000Y-002000
X-004500Y-002000
X-004500Y-001000
X-004500Y+000000
X-004500Y+001000
X-004500Y+011000
X-004500Y+012000
X-004500Y+013000
X-004500Y+014000
X+008500Y+001500
X+012500Y+001500
X+015000Y+001500
X+015000Y+000500
X+015000Y-000500
X+018000Y-000500
X+018000Y+000500
X+018000Y+001500
X+020000Y-000500
X+020000Y+003500
X+022500Y+002500
X+022500Y+001500
X+022500Y+000500
X+024500Y-003000
X+024500Y+001000
X+019500Y-004000
X+023500Y-004000
X+023500Y+011500
X+019500Y+011500
X+023500Y+009000
X+019500Y+009000
X+019500Y+006000
X+023500Y+006000
X+018000Y+007500
X+022000Y+007500
X+018000Y+008500
X+018000Y+009500
X+015000Y+009500
X+015000Y+008500
X+013500Y+007000
X+013500Y+011000
X+012000Y+011000
X+012000Y+012000
X+009500Y+007000
X+009500Y+011000
X+011000Y+007000
X+011000Y+011000
X+004500Y+000000
X+008500Y+000000
X+010500Y+004000
X+011500Y+005000
X+012500Y+004000
X+000000Y+021000
X-001000Y+021000
X-002000Y+021000
X-006000Y+017500
X-005000Y+017500
X+022500Y-002000
X+018500Y-002000
X+018000Y+010500
X+022000Y+010500
X+013500Y+006000
X+013500Y+005000
X+013500Y+003000
X+014500Y+003000
X+009500Y+012500
X+010500Y+012500
X+004500Y+012500
X+008500Y+012500
X+008500Y+002500
X+010500Y+002500
X+010500Y-002500
X+010500Y-001500
X-006000Y+010000
X-006000Y+011000
X-006000Y+000000
X-006000Y+001000
X-029140Y+018450
X-028140Y+018450
X-027140Y+018450
X-026140Y+018450
X-025140Y+018450
X-024140Y+018450
X-023140Y+018450
X-022140Y+018450
X-021140Y+018450
X-021140Y+021450
X-022140Y+021450
X-023140Y+021450
X-024140Y+021450
X-025140Y+021450
X-026140Y+021450
X-027140Y+021450
X-028140Y+021450
X-029140Y+021450
X-024140Y+023950
X-025140Y+023950
X-026140Y+014450
X-030140Y+014450
X-031140Y+016450
X-031140Y+020450
X-031140Y+015450
X-030140Y+015450
X-026140Y+026950
X-025140Y+026950
X-024140Y+026950
X-023140Y+026950
X-022140Y+026950
X-021140Y+026950
X-024140Y+017450
X-025140Y+017450
X-024140Y+014450
X-020140Y+014450
X-021140Y+013450
X-020140Y+013450
X-019140Y+013450
X-018140Y+015950
X-022140Y+015950
X-019640Y+024950
X-019640Y+028950
X-018640Y+019950
X-017640Y+018950
X-018640Y+017950
X-018140Y+029450
X-018140Y+030450
X-018140Y+026950
X-015640Y+025950
X-014640Y+025950
X-015640Y+028450
X-014263Y+028450
X-026640Y+023450
X-028640Y+023450
X-027140Y+024950
X-027140Y+025950
X-028640Y+024950
X-028640Y+025950
X-016015Y+017825
X-015015Y+018825
X-014015Y+017825
X-016640Y+016950
X-020640Y+016950
X-014140Y+021200
X-018140Y+021200
X-023640Y+031950
X-031514Y+031950
X-018140Y+022950
X-018140Y+023950
X-018140Y+024950
X-018140Y+025950
X-016640Y+022450
X-015640Y+023450
X-014640Y+022450
X-027140Y+016450
X-029140Y+016450
X-021140Y+028450
X-025140Y+028450
X-030140Y+013700
X-026140Y+013700
X-020640Y+029950
X-019640Y+029950
T02
X-000500Y+012500
X+003500Y+012500
X+002000Y+027500
X+002000Y+023500
X+000000Y+027500
X+000000Y+023500
X-002000Y+023500
X-002000Y+027500
X-004000Y+023500
X-004000Y+027500
T03
X+010500Y+000000
X-006000Y+014000
X-004500Y+016000
X-006000Y+016000
T04
X-004500Y+020500
X-006500Y+020500
X+004000Y+021500
X+004000Y+019500
T05
X+027000Y+006500
X+027000Y+008500
X+005000Y+028000
X+005000Y+026000
X+005000Y+024000
X+027000Y+001000
X+027000Y+003000
X+027000Y+031000
X+027000Y+033000
X+027000Y+035000
X+027000Y+014500
X+027000Y+012500
T06
X+027000Y+028000
X+027000Y+018000
M30
