M48
INCH
T01C0.0300
%
T01
X-004500Y+001000
X-003500Y+001000
X-002500Y+001000
X-001500Y+001000
X-000500Y+001000
X+000500Y+001000
X+001500Y+001000
X+002500Y+001000
X+003500Y+001000
X+003500Y+004000
X+002500Y+004000
X+001500Y+004000
X+000500Y+004000
X-000500Y+004000
X-001500Y+004000
X-002500Y+004000
X-003500Y+004000
X-004500Y+004000
X+000500Y+006500
X-000500Y+006500
X-001500Y-003000
X-005500Y-003000
X-006500Y-001000
X-006500Y+003000
X-006500Y-002000
X-005500Y-002000
X-001500Y+009500
X-000500Y+009500
X+000500Y+009500
X+001500Y+009500
X+002500Y+009500
X+003500Y+009500
X+000500Y+000000
X-000500Y+000000
X+000500Y-003000
X+004500Y-003000
X+003500Y-004000
X+004500Y-004000
X+005500Y-004000
X+006500Y-001500
X+002500Y-001500
X+005000Y+007500
X+005000Y+011500
X+006000Y+002500
X+007000Y+001500
X+006000Y+000500
X+006500Y+012000
X+006500Y+013000
X+006500Y+009500
X+009000Y+008500
X+010000Y+008500
X+009000Y+011000
X+010377Y+011000
X-002000Y+006000
X-004000Y+006000
X-002500Y+007500
X-002500Y+008500
X-004000Y+007500
X-004000Y+008500
X+008625Y+000375
X+009625Y+001375
X+010625Y+000375
X+008000Y-000500
X+004000Y-000500
X+010500Y+003750
X+006500Y+003750
X+001000Y+014500
X-006874Y+014500
X+006500Y+005500
X+006500Y+006500
X+006500Y+007500
X+006500Y+008500
X+008000Y+005000
X+009000Y+006000
X+010000Y+005000
X-002500Y-001000
X-004500Y-001000
X+003500Y+011000
X-000500Y+011000
X-005500Y-003750
X-001500Y-003750
X+004000Y+012500
X+005000Y+012500
X-036500Y+001000
X-035500Y+001000
X-034500Y+001000
X-033500Y+001000
X-032500Y+001000
X-031500Y+001000
X-030500Y+001000
X-029500Y+001000
X-028500Y+001000
X-028500Y+004000
X-029500Y+004000
X-030500Y+004000
X-031500Y+004000
X-032500Y+004000
X-033500Y+004000
X-034500Y+004000
X-035500Y+004000
X-036500Y+004000
X-031500Y+006500
X-032500Y+006500
X-033500Y-003000
X-037500Y-003000
X-038500Y-001000
X-038500Y+003000
X-038500Y-002000
X-037500Y-002000
X-033500Y+009500
X-032500Y+009500
X-031500Y+009500
X-030500Y+009500
X-029500Y+009500
X-028500Y+009500
X-031500Y+000000
X-032500Y+000000
X-031500Y-003000
X-027500Y-003000
X-028500Y-004000
X-027500Y-004000
X-026500Y-004000
X-025500Y-001500
X-029500Y-001500
X-027000Y+007500
X-027000Y+011500
X-026000Y+002500
X-025000Y+001500
X-026000Y+000500
X-025500Y+012000
X-025500Y+013000
X-025500Y+009500
X-023000Y+008500
X-022000Y+008500
X-023000Y+011000
X-021623Y+011000
X-034000Y+006000
X-036000Y+006000
X-034500Y+007500
X-034500Y+008500
X-036000Y+007500
X-036000Y+008500
X-023375Y+000375
X-022375Y+001375
X-021375Y+000375
X-024000Y-000500
X-028000Y-000500
X-021500Y+003750
X-025500Y+003750
X-031000Y+014500
X-038874Y+014500
X-025500Y+005500
X-025500Y+006500
X-025500Y+007500
X-025500Y+008500
X-024000Y+005000
X-023000Y+006000
X-022000Y+005000
X-034500Y-001000
X-036500Y-001000
X-028500Y+011000
X-032500Y+011000
X-037500Y-003750
X-033500Y-003750
X-028000Y+012500
X-027000Y+012500
X-037000Y-034500
X-036000Y-034500
X-035000Y-034500
X-034000Y-034500
X-033000Y-034500
X-032000Y-034500
X-031000Y-034500
X-030000Y-034500
X-029000Y-034500
X-029000Y-031500
X-030000Y-031500
X-031000Y-031500
X-032000Y-031500
X-033000Y-031500
X-034000Y-031500
X-035000Y-031500
X-036000Y-031500
X-037000Y-031500
X-032000Y-029000
X-033000Y-029000
X-034000Y-038500
X-038000Y-038500
X-039000Y-036500
X-039000Y-032500
X-039000Y-037500
X-038000Y-037500
X-034000Y-026000
X-033000Y-026000
X-032000Y-026000
X-031000Y-026000
X-030000Y-026000
X-029000Y-026000
X-032000Y-035500
X-033000Y-035500
X-032000Y-038500
X-028000Y-038500
X-029000Y-039500
X-028000Y-039500
X-027000Y-039500
X-026000Y-037000
X-030000Y-037000
X-027500Y-028000
X-027500Y-024000
X-026500Y-033000
X-025500Y-034000
X-026500Y-035000
X-026000Y-023500
X-026000Y-022500
X-026000Y-026000
X-023500Y-027000
X-022500Y-027000
X-023500Y-024500
X-022123Y-024500
X-034500Y-029500
X-036500Y-029500
X-035000Y-028000
X-035000Y-027000
X-036500Y-028000
X-036500Y-027000
X-023875Y-035125
X-022875Y-034125
X-021875Y-035125
X-024500Y-036000
X-028500Y-036000
X-022000Y-031750
X-026000Y-031750
X-031500Y-021000
X-039374Y-021000
X-026000Y-030000
X-026000Y-029000
X-026000Y-028000
X-026000Y-027000
X-024500Y-030500
X-023500Y-029500
X-022500Y-030500
X-035000Y-036500
X-037000Y-036500
X-029000Y-024500
X-033000Y-024500
X-038000Y-039250
X-034000Y-039250
X-028500Y-023000
X-027500Y-023000
X-004500Y-034500
X-003500Y-034500
X-002500Y-034500
X-001500Y-034500
X-000500Y-034500
X+000500Y-034500
X+001500Y-034500
X+002500Y-034500
X+003500Y-034500
X+003500Y-031500
X+002500Y-031500
X+001500Y-031500
X+000500Y-031500
X-000500Y-031500
X-001500Y-031500
X-002500Y-031500
X-003500Y-031500
X-004500Y-031500
X+000500Y-029000
X-000500Y-029000
X-001500Y-038500
X-005500Y-038500
X-006500Y-036500
X-006500Y-032500
X-006500Y-037500
X-005500Y-037500
X-001500Y-026000
X-000500Y-026000
X+000500Y-026000
X+001500Y-026000
X+002500Y-026000
X+003500Y-026000
X+000500Y-035500
X-000500Y-035500
X+000500Y-038500
X+004500Y-038500
X+003500Y-039500
X+004500Y-039500
X+005500Y-039500
X+006500Y-037000
X+002500Y-037000
X+005000Y-028000
X+005000Y-024000
X+006000Y-033000
X+007000Y-034000
X+006000Y-035000
X+006500Y-023500
X+006500Y-022500
X+006500Y-026000
X+009000Y-027000
X+010000Y-027000
X+009000Y-024500
X+010377Y-024500
X-002000Y-029500
X-004000Y-029500
X-002500Y-028000
X-002500Y-027000
X-004000Y-028000
X-004000Y-027000
X+008625Y-035125
X+009625Y-034125
X+010625Y-035125
X+008000Y-036000
X+004000Y-036000
X+010500Y-031750
X+006500Y-031750
X+001000Y-021000
X-006874Y-021000
X+006500Y-030000
X+006500Y-029000
X+006500Y-028000
X+006500Y-027000
X+008000Y-030500
X+009000Y-029500
X+010000Y-030500
X-002500Y-036500
X-004500Y-036500
X+003500Y-024500
X-000500Y-024500
X-005500Y-039250
X-001500Y-039250
X+004000Y-023000
X+005000Y-023000
M30
